<svg xmlns="http://www.w3.org/2000/svg" viewBox="0 0 1200 800" width="1200" height="800" role="img" aria-label="Placa de circuito con un procesador central">
  <title>Placa de circuito con un procesador central</title>
  <rect width="1200" height="800" fill="#E8E7E4"/>
  <rect x="0" y="0" width="1200" height="800" fill="#F2F1EE"/>
  <path d="M60 90 h297 l40 40 h235" fill="none" stroke="#1B1B1B" stroke-opacity=".14" stroke-width="4"/>
  <path d="M60 170 h259 l40 40 h192" fill="none" stroke="#1B1B1B" stroke-opacity=".14" stroke-width="4"/>
  <path d="M60 250 h298 l40 40 h297" fill="none" stroke="#1B1B1B" stroke-opacity=".14" stroke-width="4"/>
  <path d="M60 330 h376 l40 40 h222" fill="none" stroke="#1B1B1B" stroke-opacity=".14" stroke-width="4"/>
  <path d="M60 410 h341 l40 40 h220" fill="none" stroke="#1B1B1B" stroke-opacity=".14" stroke-width="4"/>
  <path d="M60 490 h298 l40 40 h368" fill="none" stroke="#1B1B1B" stroke-opacity=".14" stroke-width="4"/>
  <path d="M60 570 h387 l40 40 h345" fill="none" stroke="#1B1B1B" stroke-opacity=".14" stroke-width="4"/>
  <path d="M60 650 h347 l40 40 h152" fill="none" stroke="#1B1B1B" stroke-opacity=".14" stroke-width="4"/>
  <path d="M60 730 h399 l40 40 h213" fill="none" stroke="#1B1B1B" stroke-opacity=".14" stroke-width="4"/>
  <rect x="400" y="270" width="400" height="260" fill="#1B1B1B" fill-opacity=".85"/>
  <rect x="440" y="310" width="320" height="180" fill="#F2F1EE" fill-opacity=".12"/>
  <rect x="470" y="340" width="46" height="16" fill="#F2F1EE" fill-opacity="0.38"/>
  <rect x="542" y="340" width="46" height="16" fill="#F2F1EE" fill-opacity="0.44"/>
  <rect x="614" y="340" width="46" height="16" fill="#F2F1EE" fill-opacity="0.30"/>
  <rect x="686" y="340" width="46" height="16" fill="#F2F1EE" fill-opacity="0.20"/>
  <rect x="470" y="376" width="46" height="16" fill="#F2F1EE" fill-opacity="0.20"/>
  <rect x="542" y="376" width="46" height="16" fill="#F2F1EE" fill-opacity="0.40"/>
  <rect x="614" y="376" width="46" height="16" fill="#F2F1EE" fill-opacity="0.21"/>
  <rect x="686" y="376" width="46" height="16" fill="#F2F1EE" fill-opacity="0.38"/>
  <rect x="470" y="412" width="46" height="16" fill="#F2F1EE" fill-opacity="0.37"/>
  <rect x="542" y="412" width="46" height="16" fill="#F2F1EE" fill-opacity="0.17"/>
  <rect x="614" y="412" width="46" height="16" fill="#F2F1EE" fill-opacity="0.42"/>
  <rect x="686" y="412" width="46" height="16" fill="#F2F1EE" fill-opacity="0.16"/>
  <rect x="470" y="448" width="46" height="16" fill="#F2F1EE" fill-opacity="0.45"/>
  <rect x="542" y="448" width="46" height="16" fill="#F2F1EE" fill-opacity="0.44"/>
  <rect x="614" y="448" width="46" height="16" fill="#F2F1EE" fill-opacity="0.23"/>
  <rect x="686" y="448" width="46" height="16" fill="#F2F1EE" fill-opacity="0.40"/>
  <rect x="430" y="230" width="12" height="44" fill="#1B1B1B" fill-opacity=".55"/>
  <rect x="492" y="230" width="12" height="44" fill="#1B1B1B" fill-opacity=".55"/>
  <rect x="554" y="230" width="12" height="44" fill="#1B1B1B" fill-opacity=".55"/>
  <rect x="616" y="230" width="12" height="44" fill="#1B1B1B" fill-opacity=".55"/>
  <rect x="678" y="230" width="12" height="44" fill="#1B1B1B" fill-opacity=".55"/>
  <rect x="740" y="230" width="12" height="44" fill="#1B1B1B" fill-opacity=".55"/>
  <rect x="430" y="526" width="12" height="44" fill="#1B1B1B" fill-opacity=".55"/>
  <rect x="492" y="526" width="12" height="44" fill="#1B1B1B" fill-opacity=".55"/>
  <rect x="554" y="526" width="12" height="44" fill="#1B1B1B" fill-opacity=".55"/>
  <rect x="616" y="526" width="12" height="44" fill="#1B1B1B" fill-opacity=".55"/>
  <rect x="678" y="526" width="12" height="44" fill="#1B1B1B" fill-opacity=".55"/>
  <rect x="740" y="526" width="12" height="44" fill="#1B1B1B" fill-opacity=".55"/>
  <rect x="356" y="300" width="44" height="12" fill="#1B1B1B" fill-opacity=".55"/>
  <rect x="356" y="338" width="44" height="12" fill="#1B1B1B" fill-opacity=".55"/>
  <rect x="356" y="376" width="44" height="12" fill="#1B1B1B" fill-opacity=".55"/>
  <rect x="356" y="414" width="44" height="12" fill="#1B1B1B" fill-opacity=".55"/>
  <rect x="356" y="452" width="44" height="12" fill="#1B1B1B" fill-opacity=".55"/>
  <rect x="356" y="490" width="44" height="12" fill="#1B1B1B" fill-opacity=".55"/>
  <rect x="800" y="300" width="44" height="12" fill="#1B1B1B" fill-opacity=".55"/>
  <rect x="800" y="338" width="44" height="12" fill="#1B1B1B" fill-opacity=".55"/>
  <rect x="800" y="376" width="44" height="12" fill="#1B1B1B" fill-opacity=".55"/>
  <rect x="800" y="414" width="44" height="12" fill="#1B1B1B" fill-opacity=".55"/>
  <rect x="800" y="452" width="44" height="12" fill="#1B1B1B" fill-opacity=".55"/>
  <rect x="800" y="490" width="44" height="12" fill="#1B1B1B" fill-opacity=".55"/>
  <circle cx="600" cy="400" r="34" fill="#C8102E"/>
  <circle cx="600" cy="400" r="60" fill="none" stroke="#C8102E" stroke-opacity=".35" stroke-width="6"/>

  <rect x="24" y="728" width="475" height="44" fill="#F2F1EE" fill-opacity=".88"/>
  <text x="44" y="758" font-family="Inter, Helvetica, Arial, sans-serif" font-size="19" letter-spacing="4"
        fill="#1B1B1B" fill-opacity=".55">IMAGEN DE MUESTRA · TECNOLOGÍA</text>
</svg>
