<svg xmlns="http://www.w3.org/2000/svg" viewBox="0 0 1200 800" width="1200" height="800" role="img" aria-label="Contenedores apilados en un puerto con grúa">
  <title>Contenedores apilados en un puerto con grúa</title>
  <rect width="1200" height="800" fill="#E8E7E4"/>
  <rect x="0" y="0" width="1200" height="520" fill="#F2F1EE"/>
  <rect x="120" y="120" width="16" height="400" fill="#1B1B1B" fill-opacity=".55"/>
  <rect x="120" y="120" width="520" height="14" fill="#1B1B1B" fill-opacity=".55"/>
  <rect x="470" y="134" width="8" height="120" fill="#1B1B1B" fill-opacity=".4"/>
  <rect x="440" y="254" width="70" height="46" fill="#1B1B1B" fill-opacity=".5"/>
  <rect x="0" y="520" width="1200" height="280" fill="#4A4A4A" fill-opacity=".2"/>
  <rect x="90" y="456" width="165" height="62" fill="#1B1B1B" fill-opacity="0.78"/>
  <rect x="102" y="464" width="7" height="46" fill="#F2F1EE" fill-opacity=".22"/>
  <rect x="124" y="464" width="7" height="46" fill="#F2F1EE" fill-opacity=".22"/>
  <rect x="146" y="464" width="7" height="46" fill="#F2F1EE" fill-opacity=".22"/>
  <rect x="168" y="464" width="7" height="46" fill="#F2F1EE" fill-opacity=".22"/>
  <rect x="190" y="464" width="7" height="46" fill="#F2F1EE" fill-opacity=".22"/>
  <rect x="212" y="464" width="7" height="46" fill="#F2F1EE" fill-opacity=".22"/>
  <rect x="234" y="464" width="7" height="46" fill="#F2F1EE" fill-opacity=".22"/>
  <rect x="265" y="456" width="165" height="62" fill="#1B1B1B" fill-opacity="0.82"/>
  <rect x="277" y="464" width="7" height="46" fill="#F2F1EE" fill-opacity=".22"/>
  <rect x="299" y="464" width="7" height="46" fill="#F2F1EE" fill-opacity=".22"/>
  <rect x="321" y="464" width="7" height="46" fill="#F2F1EE" fill-opacity=".22"/>
  <rect x="343" y="464" width="7" height="46" fill="#F2F1EE" fill-opacity=".22"/>
  <rect x="365" y="464" width="7" height="46" fill="#F2F1EE" fill-opacity=".22"/>
  <rect x="387" y="464" width="7" height="46" fill="#F2F1EE" fill-opacity=".22"/>
  <rect x="409" y="464" width="7" height="46" fill="#F2F1EE" fill-opacity=".22"/>
  <rect x="440" y="456" width="165" height="62" fill="#1B1B1B" fill-opacity="0.84"/>
  <rect x="452" y="464" width="7" height="46" fill="#F2F1EE" fill-opacity=".22"/>
  <rect x="474" y="464" width="7" height="46" fill="#F2F1EE" fill-opacity=".22"/>
  <rect x="496" y="464" width="7" height="46" fill="#F2F1EE" fill-opacity=".22"/>
  <rect x="518" y="464" width="7" height="46" fill="#F2F1EE" fill-opacity=".22"/>
  <rect x="540" y="464" width="7" height="46" fill="#F2F1EE" fill-opacity=".22"/>
  <rect x="562" y="464" width="7" height="46" fill="#F2F1EE" fill-opacity=".22"/>
  <rect x="584" y="464" width="7" height="46" fill="#F2F1EE" fill-opacity=".22"/>
  <rect x="615" y="456" width="165" height="62" fill="#1B1B1B" fill-opacity="0.90"/>
  <rect x="627" y="464" width="7" height="46" fill="#F2F1EE" fill-opacity=".22"/>
  <rect x="649" y="464" width="7" height="46" fill="#F2F1EE" fill-opacity=".22"/>
  <rect x="671" y="464" width="7" height="46" fill="#F2F1EE" fill-opacity=".22"/>
  <rect x="693" y="464" width="7" height="46" fill="#F2F1EE" fill-opacity=".22"/>
  <rect x="715" y="464" width="7" height="46" fill="#F2F1EE" fill-opacity=".22"/>
  <rect x="737" y="464" width="7" height="46" fill="#F2F1EE" fill-opacity=".22"/>
  <rect x="759" y="464" width="7" height="46" fill="#F2F1EE" fill-opacity=".22"/>
  <rect x="790" y="456" width="165" height="62" fill="#1B1B1B" fill-opacity="0.82"/>
  <rect x="802" y="464" width="7" height="46" fill="#F2F1EE" fill-opacity=".22"/>
  <rect x="824" y="464" width="7" height="46" fill="#F2F1EE" fill-opacity=".22"/>
  <rect x="846" y="464" width="7" height="46" fill="#F2F1EE" fill-opacity=".22"/>
  <rect x="868" y="464" width="7" height="46" fill="#F2F1EE" fill-opacity=".22"/>
  <rect x="890" y="464" width="7" height="46" fill="#F2F1EE" fill-opacity=".22"/>
  <rect x="912" y="464" width="7" height="46" fill="#F2F1EE" fill-opacity=".22"/>
  <rect x="934" y="464" width="7" height="46" fill="#F2F1EE" fill-opacity=".22"/>
  <rect x="965" y="456" width="165" height="62" fill="#1B1B1B" fill-opacity="0.89"/>
  <rect x="977" y="464" width="7" height="46" fill="#F2F1EE" fill-opacity=".22"/>
  <rect x="999" y="464" width="7" height="46" fill="#F2F1EE" fill-opacity=".22"/>
  <rect x="1021" y="464" width="7" height="46" fill="#F2F1EE" fill-opacity=".22"/>
  <rect x="1043" y="464" width="7" height="46" fill="#F2F1EE" fill-opacity=".22"/>
  <rect x="1065" y="464" width="7" height="46" fill="#F2F1EE" fill-opacity=".22"/>
  <rect x="1087" y="464" width="7" height="46" fill="#F2F1EE" fill-opacity=".22"/>
  <rect x="1109" y="464" width="7" height="46" fill="#F2F1EE" fill-opacity=".22"/>
  <rect x="90" y="388" width="165" height="62" fill="#1B1B1B" fill-opacity="0.56"/>
  <rect x="102" y="396" width="7" height="46" fill="#F2F1EE" fill-opacity=".22"/>
  <rect x="124" y="396" width="7" height="46" fill="#F2F1EE" fill-opacity=".22"/>
  <rect x="146" y="396" width="7" height="46" fill="#F2F1EE" fill-opacity=".22"/>
  <rect x="168" y="396" width="7" height="46" fill="#F2F1EE" fill-opacity=".22"/>
  <rect x="190" y="396" width="7" height="46" fill="#F2F1EE" fill-opacity=".22"/>
  <rect x="212" y="396" width="7" height="46" fill="#F2F1EE" fill-opacity=".22"/>
  <rect x="234" y="396" width="7" height="46" fill="#F2F1EE" fill-opacity=".22"/>
  <rect x="265" y="388" width="165" height="62" fill="#1B1B1B" fill-opacity="0.72"/>
  <rect x="277" y="396" width="7" height="46" fill="#F2F1EE" fill-opacity=".22"/>
  <rect x="299" y="396" width="7" height="46" fill="#F2F1EE" fill-opacity=".22"/>
  <rect x="321" y="396" width="7" height="46" fill="#F2F1EE" fill-opacity=".22"/>
  <rect x="343" y="396" width="7" height="46" fill="#F2F1EE" fill-opacity=".22"/>
  <rect x="365" y="396" width="7" height="46" fill="#F2F1EE" fill-opacity=".22"/>
  <rect x="387" y="396" width="7" height="46" fill="#F2F1EE" fill-opacity=".22"/>
  <rect x="409" y="396" width="7" height="46" fill="#F2F1EE" fill-opacity=".22"/>
  <rect x="440" y="388" width="165" height="62" fill="#1B1B1B" fill-opacity="0.90"/>
  <rect x="452" y="396" width="7" height="46" fill="#F2F1EE" fill-opacity=".22"/>
  <rect x="474" y="396" width="7" height="46" fill="#F2F1EE" fill-opacity=".22"/>
  <rect x="496" y="396" width="7" height="46" fill="#F2F1EE" fill-opacity=".22"/>
  <rect x="518" y="396" width="7" height="46" fill="#F2F1EE" fill-opacity=".22"/>
  <rect x="540" y="396" width="7" height="46" fill="#F2F1EE" fill-opacity=".22"/>
  <rect x="562" y="396" width="7" height="46" fill="#F2F1EE" fill-opacity=".22"/>
  <rect x="584" y="396" width="7" height="46" fill="#F2F1EE" fill-opacity=".22"/>
  <rect x="615" y="388" width="165" height="62" fill="#1B1B1B" fill-opacity="0.79"/>
  <rect x="627" y="396" width="7" height="46" fill="#F2F1EE" fill-opacity=".22"/>
  <rect x="649" y="396" width="7" height="46" fill="#F2F1EE" fill-opacity=".22"/>
  <rect x="671" y="396" width="7" height="46" fill="#F2F1EE" fill-opacity=".22"/>
  <rect x="693" y="396" width="7" height="46" fill="#F2F1EE" fill-opacity=".22"/>
  <rect x="715" y="396" width="7" height="46" fill="#F2F1EE" fill-opacity=".22"/>
  <rect x="737" y="396" width="7" height="46" fill="#F2F1EE" fill-opacity=".22"/>
  <rect x="759" y="396" width="7" height="46" fill="#F2F1EE" fill-opacity=".22"/>
  <rect x="790" y="388" width="165" height="62" fill="#1B1B1B" fill-opacity="0.88"/>
  <rect x="802" y="396" width="7" height="46" fill="#F2F1EE" fill-opacity=".22"/>
  <rect x="824" y="396" width="7" height="46" fill="#F2F1EE" fill-opacity=".22"/>
  <rect x="846" y="396" width="7" height="46" fill="#F2F1EE" fill-opacity=".22"/>
  <rect x="868" y="396" width="7" height="46" fill="#F2F1EE" fill-opacity=".22"/>
  <rect x="890" y="396" width="7" height="46" fill="#F2F1EE" fill-opacity=".22"/>
  <rect x="912" y="396" width="7" height="46" fill="#F2F1EE" fill-opacity=".22"/>
  <rect x="934" y="396" width="7" height="46" fill="#F2F1EE" fill-opacity=".22"/>
  <rect x="965" y="388" width="165" height="62" fill="#1B1B1B" fill-opacity="0.59"/>
  <rect x="977" y="396" width="7" height="46" fill="#F2F1EE" fill-opacity=".22"/>
  <rect x="999" y="396" width="7" height="46" fill="#F2F1EE" fill-opacity=".22"/>
  <rect x="1021" y="396" width="7" height="46" fill="#F2F1EE" fill-opacity=".22"/>
  <rect x="1043" y="396" width="7" height="46" fill="#F2F1EE" fill-opacity=".22"/>
  <rect x="1065" y="396" width="7" height="46" fill="#F2F1EE" fill-opacity=".22"/>
  <rect x="1087" y="396" width="7" height="46" fill="#F2F1EE" fill-opacity=".22"/>
  <rect x="1109" y="396" width="7" height="46" fill="#F2F1EE" fill-opacity=".22"/>
  <rect x="90" y="320" width="165" height="62" fill="#1B1B1B" fill-opacity="0.72"/>
  <rect x="102" y="328" width="7" height="46" fill="#F2F1EE" fill-opacity=".22"/>
  <rect x="124" y="328" width="7" height="46" fill="#F2F1EE" fill-opacity=".22"/>
  <rect x="146" y="328" width="7" height="46" fill="#F2F1EE" fill-opacity=".22"/>
  <rect x="168" y="328" width="7" height="46" fill="#F2F1EE" fill-opacity=".22"/>
  <rect x="190" y="328" width="7" height="46" fill="#F2F1EE" fill-opacity=".22"/>
  <rect x="212" y="328" width="7" height="46" fill="#F2F1EE" fill-opacity=".22"/>
  <rect x="234" y="328" width="7" height="46" fill="#F2F1EE" fill-opacity=".22"/>
  <rect x="265" y="320" width="165" height="62" fill="#1B1B1B" fill-opacity="0.64"/>
  <rect x="277" y="328" width="7" height="46" fill="#F2F1EE" fill-opacity=".22"/>
  <rect x="299" y="328" width="7" height="46" fill="#F2F1EE" fill-opacity=".22"/>
  <rect x="321" y="328" width="7" height="46" fill="#F2F1EE" fill-opacity=".22"/>
  <rect x="343" y="328" width="7" height="46" fill="#F2F1EE" fill-opacity=".22"/>
  <rect x="365" y="328" width="7" height="46" fill="#F2F1EE" fill-opacity=".22"/>
  <rect x="387" y="328" width="7" height="46" fill="#F2F1EE" fill-opacity=".22"/>
  <rect x="409" y="328" width="7" height="46" fill="#F2F1EE" fill-opacity=".22"/>
  <rect x="440" y="320" width="165" height="62" fill="#C8102E" fill-opacity="0.75"/>
  <rect x="452" y="328" width="7" height="46" fill="#F2F1EE" fill-opacity=".22"/>
  <rect x="474" y="328" width="7" height="46" fill="#F2F1EE" fill-opacity=".22"/>
  <rect x="496" y="328" width="7" height="46" fill="#F2F1EE" fill-opacity=".22"/>
  <rect x="518" y="328" width="7" height="46" fill="#F2F1EE" fill-opacity=".22"/>
  <rect x="540" y="328" width="7" height="46" fill="#F2F1EE" fill-opacity=".22"/>
  <rect x="562" y="328" width="7" height="46" fill="#F2F1EE" fill-opacity=".22"/>
  <rect x="584" y="328" width="7" height="46" fill="#F2F1EE" fill-opacity=".22"/>
  <rect x="615" y="320" width="165" height="62" fill="#1B1B1B" fill-opacity="0.76"/>
  <rect x="627" y="328" width="7" height="46" fill="#F2F1EE" fill-opacity=".22"/>
  <rect x="649" y="328" width="7" height="46" fill="#F2F1EE" fill-opacity=".22"/>
  <rect x="671" y="328" width="7" height="46" fill="#F2F1EE" fill-opacity=".22"/>
  <rect x="693" y="328" width="7" height="46" fill="#F2F1EE" fill-opacity=".22"/>
  <rect x="715" y="328" width="7" height="46" fill="#F2F1EE" fill-opacity=".22"/>
  <rect x="737" y="328" width="7" height="46" fill="#F2F1EE" fill-opacity=".22"/>
  <rect x="759" y="328" width="7" height="46" fill="#F2F1EE" fill-opacity=".22"/>
  <rect x="790" y="320" width="165" height="62" fill="#1B1B1B" fill-opacity="0.55"/>
  <rect x="802" y="328" width="7" height="46" fill="#F2F1EE" fill-opacity=".22"/>
  <rect x="824" y="328" width="7" height="46" fill="#F2F1EE" fill-opacity=".22"/>
  <rect x="846" y="328" width="7" height="46" fill="#F2F1EE" fill-opacity=".22"/>
  <rect x="868" y="328" width="7" height="46" fill="#F2F1EE" fill-opacity=".22"/>
  <rect x="890" y="328" width="7" height="46" fill="#F2F1EE" fill-opacity=".22"/>
  <rect x="912" y="328" width="7" height="46" fill="#F2F1EE" fill-opacity=".22"/>
  <rect x="934" y="328" width="7" height="46" fill="#F2F1EE" fill-opacity=".22"/>
  <rect x="90" y="252" width="165" height="62" fill="#1B1B1B" fill-opacity="0.63"/>
  <rect x="102" y="260" width="7" height="46" fill="#F2F1EE" fill-opacity=".22"/>
  <rect x="124" y="260" width="7" height="46" fill="#F2F1EE" fill-opacity=".22"/>
  <rect x="146" y="260" width="7" height="46" fill="#F2F1EE" fill-opacity=".22"/>
  <rect x="168" y="260" width="7" height="46" fill="#F2F1EE" fill-opacity=".22"/>
  <rect x="190" y="260" width="7" height="46" fill="#F2F1EE" fill-opacity=".22"/>
  <rect x="212" y="260" width="7" height="46" fill="#F2F1EE" fill-opacity=".22"/>
  <rect x="234" y="260" width="7" height="46" fill="#F2F1EE" fill-opacity=".22"/>
  <rect x="265" y="252" width="165" height="62" fill="#1B1B1B" fill-opacity="0.65"/>
  <rect x="277" y="260" width="7" height="46" fill="#F2F1EE" fill-opacity=".22"/>
  <rect x="299" y="260" width="7" height="46" fill="#F2F1EE" fill-opacity=".22"/>
  <rect x="321" y="260" width="7" height="46" fill="#F2F1EE" fill-opacity=".22"/>
  <rect x="343" y="260" width="7" height="46" fill="#F2F1EE" fill-opacity=".22"/>
  <rect x="365" y="260" width="7" height="46" fill="#F2F1EE" fill-opacity=".22"/>
  <rect x="387" y="260" width="7" height="46" fill="#F2F1EE" fill-opacity=".22"/>
  <rect x="409" y="260" width="7" height="46" fill="#F2F1EE" fill-opacity=".22"/>
  <rect x="440" y="252" width="165" height="62" fill="#1B1B1B" fill-opacity="0.89"/>
  <rect x="452" y="260" width="7" height="46" fill="#F2F1EE" fill-opacity=".22"/>
  <rect x="474" y="260" width="7" height="46" fill="#F2F1EE" fill-opacity=".22"/>
  <rect x="496" y="260" width="7" height="46" fill="#F2F1EE" fill-opacity=".22"/>
  <rect x="518" y="260" width="7" height="46" fill="#F2F1EE" fill-opacity=".22"/>
  <rect x="540" y="260" width="7" height="46" fill="#F2F1EE" fill-opacity=".22"/>
  <rect x="562" y="260" width="7" height="46" fill="#F2F1EE" fill-opacity=".22"/>
  <rect x="584" y="260" width="7" height="46" fill="#F2F1EE" fill-opacity=".22"/>

  <rect x="24" y="728" width="446" height="44" fill="#F2F1EE" fill-opacity=".88"/>
  <text x="44" y="758" font-family="Inter, Helvetica, Arial, sans-serif" font-size="19" letter-spacing="4"
        fill="#1B1B1B" fill-opacity=".55">IMAGEN DE MUESTRA · ECONOMÍA</text>
</svg>
