<svg xmlns="http://www.w3.org/2000/svg" viewBox="0 0 1200 800" width="1200" height="800" role="img" aria-label="Fachada del Palacio Nacional con cúpula y bandera">
  <title>Fachada del Palacio Nacional con cúpula y bandera</title>
  <rect width="1200" height="800" fill="#E8E7E4"/>
  <rect x="0" y="0" width="1200" height="470" fill="#F2F1EE"/>
  <circle cx="180" cy="120" r="70" fill="#1B1B1B" fill-opacity=".045"/>
  <circle cx="250" cy="140" r="95" fill="#1B1B1B" fill-opacity=".045"/>
  <circle cx="330" cy="125" r="60" fill="#1B1B1B" fill-opacity=".045"/>
  <circle cx="900" cy="95" r="80" fill="#1B1B1B" fill-opacity=".045"/>
  <circle cx="990" cy="115" r="55" fill="#1B1B1B" fill-opacity=".045"/>
  <rect x="170" y="640" width="860" height="26" fill="#4A4A4A" fill-opacity="0.55"/>
  <rect x="136" y="666" width="928" height="26" fill="#4A4A4A" fill-opacity="0.48"/>
  <rect x="102" y="692" width="996" height="26" fill="#4A4A4A" fill-opacity="0.41"/>
  <rect x="68" y="718" width="1064" height="26" fill="#4A4A4A" fill-opacity="0.34"/>
  <rect x="34" y="744" width="1132" height="26" fill="#4A4A4A" fill-opacity="0.27"/>
  <rect x="250" y="400" width="700" height="245" fill="#1B1B1B" fill-opacity=".82"/>
  <rect x="278" y="430" width="26" height="215" fill="#F2F1EE" fill-opacity=".9"/>
  <rect x="340" y="430" width="26" height="215" fill="#F2F1EE" fill-opacity=".9"/>
  <rect x="402" y="430" width="26" height="215" fill="#F2F1EE" fill-opacity=".9"/>
  <rect x="464" y="430" width="26" height="215" fill="#F2F1EE" fill-opacity=".9"/>
  <rect x="526" y="430" width="26" height="215" fill="#F2F1EE" fill-opacity=".9"/>
  <rect x="588" y="430" width="26" height="215" fill="#F2F1EE" fill-opacity=".9"/>
  <rect x="650" y="430" width="26" height="215" fill="#F2F1EE" fill-opacity=".9"/>
  <rect x="712" y="430" width="26" height="215" fill="#F2F1EE" fill-opacity=".9"/>
  <rect x="774" y="430" width="26" height="215" fill="#F2F1EE" fill-opacity=".9"/>
  <rect x="836" y="430" width="26" height="215" fill="#F2F1EE" fill-opacity=".9"/>
  <rect x="898" y="430" width="26" height="215" fill="#F2F1EE" fill-opacity=".9"/>
  <polygon points="600,300 960,400 240,400" fill="#1B1B1B" fill-opacity=".9"/>
  <rect x="500" y="235" width="200" height="70" fill="#1B1B1B" fill-opacity=".9"/>
  <path d="M500 240 A100 118 0 0 1 700 240 Z" fill="#1B1B1B" fill-opacity=".95"/>
  <rect x="592" y="96" width="16" height="46" fill="#1B1B1B" fill-opacity=".9"/>
  <polygon points="608,96 700,118 608,140" fill="#C8102E"/>
  <rect x="330" y="470" width="20" height="60" fill="#1B1B1B" fill-opacity=".35"/>
  <rect x="410" y="470" width="20" height="60" fill="#1B1B1B" fill-opacity=".35"/>
  <rect x="490" y="470" width="20" height="60" fill="#1B1B1B" fill-opacity=".35"/>
  <rect x="570" y="470" width="20" height="60" fill="#1B1B1B" fill-opacity=".35"/>
  <rect x="650" y="470" width="20" height="60" fill="#1B1B1B" fill-opacity=".35"/>
  <rect x="730" y="470" width="20" height="60" fill="#1B1B1B" fill-opacity=".35"/>

  <rect x="24" y="728" width="446" height="44" fill="#F2F1EE" fill-opacity=".88"/>
  <text x="44" y="758" font-family="Inter, Helvetica, Arial, sans-serif" font-size="19" letter-spacing="4"
        fill="#1B1B1B" fill-opacity=".55">IMAGEN DE MUESTRA · POLÍTICA</text>
</svg>
